<?xml version="1.0" encoding="utf-8"?>
<!-- Generator: Adobe Illustrator 19.2.0, SVG Export Plug-In . SVG Version: 6.00 Build 0)  -->
<svg version="1.1" id="Layer_1" xmlns="http://www.w3.org/2000/svg" xmlns:xlink="http://www.w3.org/1999/xlink" x="0px" y="0px"
	 viewBox="0 0 56.7 56.7" style="enable-background:new 0 0 56.7 56.7;" xml:space="preserve">
<style type="text/css">
	.st0{fill:url(#SVGID_1_);}
	.st1{fill:url(#SVGID_2_);}
	.st2{fill:#96430E;}
	.st3{fill:url(#SVGID_3_);}
	.st4{fill:#FFFFFF;}
	.st5{fill:url(#SVGID_4_);}
	.st6{fill:url(#SVGID_5_);}
</style>
<g>
	<linearGradient id="SVGID_1_" gradientUnits="userSpaceOnUse" x1="28.833" y1="44.6723" x2="28.833" y2="12.7296">
		<stop  offset="0" style="stop-color:#DD661C"/>
		<stop  offset="1" style="stop-color:#F6AB16"/>
	</linearGradient>
	<path class="st0" d="M55.1,45.4c0,5.1-4.1,9.2-9.2,9.2H11.8c-5.1,0-9.2-4.1-9.2-9.2V11.4c0-5.1,4.1-9.2,9.2-9.2h34.1
		c5.1,0,9.2,4.1,9.2,9.2V45.4z"/>
	<linearGradient id="SVGID_2_" gradientUnits="userSpaceOnUse" x1="28.7852" y1="44.7462" x2="28.7852" y2="12.8023">
		<stop  offset="0" style="stop-color:#CE5F1A"/>
		<stop  offset="1" style="stop-color:#F29220"/>
	</linearGradient>
	<path class="st1" d="M55.1,45.5c0,5.1-4.1,9.2-9.2,9.2H11.7c-5.1,0-9.2-4.1-9.2-9.2V11.5c0-5.1,4.1-9.2,9.2-9.2h34.1
		c5.1,0,9.2,4.1,9.2,9.2V45.5z"/>
	<g>
		<path class="st2" d="M45.4,2.9H12.2c-5,0-9,4-9,9v33.1c0,5,4,9,9,9h33.2c5,0,9-4,9-9V11.8C54.4,6.9,50.4,2.9,45.4,2.9z M53.7,44.5
			c0,4.8-3.9,8.7-8.7,8.7H12.7c-4.8,0-8.7-3.9-8.7-8.7V12.3c0-4.8,3.9-8.7,8.7-8.7H45c4.8,0,8.7,3.9,8.7,8.7V44.5z"/>
		<linearGradient id="SVGID_3_" gradientUnits="userSpaceOnUse" x1="3.0528" y1="28.4132" x2="54.6133" y2="28.4132">
			<stop  offset="0" style="stop-color:#F28F20"/>
			<stop  offset="0.2606" style="stop-color:#F6DCB3"/>
			<stop  offset="0.2618" style="stop-color:#F6DBB2"/>
			<stop  offset="0.311" style="stop-color:#F4C480"/>
			<stop  offset="0.3601" style="stop-color:#F3B15B"/>
			<stop  offset="0.4086" style="stop-color:#F3A23F"/>
			<stop  offset="0.4561" style="stop-color:#F2972D"/>
			<stop  offset="0.5022" style="stop-color:#F29123"/>
			<stop  offset="0.5455" style="stop-color:#F28F20"/>
			<stop  offset="0.7455" style="stop-color:#F6DCB3"/>
			<stop  offset="0.7466" style="stop-color:#F6DBB2"/>
			<stop  offset="0.7904" style="stop-color:#F4C480"/>
			<stop  offset="0.8344" style="stop-color:#F3B15B"/>
			<stop  offset="0.8777" style="stop-color:#F3A23F"/>
			<stop  offset="0.9201" style="stop-color:#F2972D"/>
			<stop  offset="0.9614" style="stop-color:#F29123"/>
			<stop  offset="1" style="stop-color:#F28F20"/>
		</linearGradient>
		<path class="st3" d="M45.5,2.6H12.1c-5,0-9.1,4.1-9.1,9.1v33.4c0,5,4.1,9.1,9.1,9.1h33.4c5,0,9.1-4.1,9.1-9.1V11.7
			C54.6,6.7,50.6,2.6,45.5,2.6z M53.9,44.6c0,4.9-3.9,8.8-8.8,8.8H12.6c-4.9,0-8.8-3.9-8.8-8.8V12.2c0-4.9,3.9-8.8,8.8-8.8h32.5
			c4.9,0,8.8,3.9,8.8,8.8V44.6z"/>
	</g>
	<g>
		<g>
			<path class="st2" d="M37.8,16.8c1.1,2.2,1.1,2.8,1.1,2.8s4.2-0.2,5.1-2.1c0.9-1.9-0.3-4.6-3.5-4.7c-3.2-0.1-6.6,0.5-7.4-0.1
				C33.1,12.7,36.7,14.7,37.8,16.8z"/>
			<path class="st2" d="M41.5,26.8c-1.2,0-2.3,0.2-3.3,0.7c-0.9-1.2-1.3-2.6-1-4.1c0.8-3.4-0.1-7-3.9-9.3c-3.7-0.1-7.7-0.9-13.8,5.8
				c0,0,0,5.3,6,9.5c0,0.8-0.5,2.7-1.4,5c0,0,0,0,0-0.1c-0.8,1.9-2.8,5.2-3.2,5.1c1-1.3,2.7-5.3,3-6.9c-1.4-2.9-4.9-5.6-8.3-5.6
				c-4.7,0-8.5,3.8-8.5,8.5c0,4.7,3.8,8.5,8.5,8.5c3.6,0,6.7-2.2,7.9-5.4c0.5-0.3,1-0.7,1.4-1.3c0.7-1.1,4.7-6.2,4.7-6.2
				s0.9-1.1,0-2.7c-0.9-1.6-2.4-4-2.4-4s1.7,0.3,3.3,3.9c1.8-1.7,2.8-2.6,2.8-2.6s0.7,1.8,1.7,2.6c0.2,0.2,0.5,0.4,1,0.6
				c0,0-0.1,0.1-0.1,0.1c1,0.5,4.4,2,6.9,1.7l0.7,1.3c0,0-4-0.2-8.2-2.3c-1.3,1.5-2.3,3.4-2.3,5.6c0,4.7,3.8,8.5,8.5,8.5
				c4.7,0,8.5-3.8,8.5-8.5C50,30.6,46.2,26.8,41.5,26.8z M33.2,23.4c-1.1-1.5-3.5-1.8-6.7-4c1.3,0,3.6,0.2,5.8,0.8
				C34.6,20.7,33.2,23.4,33.2,23.4z"/>
		</g>
		<g>
			<path class="st4" d="M37.8,17.7c1.1,2.2,1.1,2.8,1.1,2.8s4.2-0.2,5.1-2.1c0.9-1.9-0.3-4.6-3.5-4.7c-3.2-0.1-6.6,0.5-7.4-0.1
				C33.1,13.6,36.7,15.6,37.8,17.7z"/>
			<path class="st4" d="M41.5,27.7c-1.2,0-2.3,0.2-3.3,0.7c-0.9-1.2-1.3-2.6-1-4.1c0.8-3.4-0.1-7-3.9-9.3c-3.7-0.1-7.7-0.9-13.8,5.8
				c0,0,0,5.3,6,9.5c0,0.8-0.5,2.7-1.4,5c0,0,0,0,0-0.1c-0.8,1.9-3.5,5.7-3.8,5.6c1-1.3,3-6.1,3.3-7.7c-1.4-2.9-4.6-5.3-8-5.3
				c-4.7,0-8.5,3.8-8.5,8.5c0,4.7,3.8,8.5,8.5,8.5c3.6,0,6.7-2.2,7.9-5.4c0.5-0.3,1-0.7,1.4-1.3c0.7-1.1,4.7-6.2,4.7-6.2
				s0.9-1.1,0-2.7c-0.9-1.6-2.8-5-2.8-5s2.1,0.8,3.7,4.5c1.8-1.7,2.8-2.1,2.8-2.1s1.3,1.4,2.3,2.2c0.2,0.2,0.6,0.2,1,0.5
				c0,0,0.9,0.2,0.9,0.2c1,0.5,3.7,1.3,6.3,1.1l-0.5,1.3c0,0-3.5,0.5-7.7-1.6c-1.3,1.5-2.5,3.8-2.5,5.9c0,4.7,3.8,8.5,8.5,8.5
				c4.7,0,8.5-3.8,8.5-8.5C50,31.5,46.2,27.7,41.5,27.7z M33.2,24.2c-1.1-1.5-6.8-2.6-7.1-4.9c1.3,0,4.2,0,6.5,0.6
				C34.9,20.6,33.2,24.2,33.2,24.2z"/>
		</g>
		<g>
			<linearGradient id="SVGID_4_" gradientUnits="userSpaceOnUse" x1="38.7126" y1="10.4021" x2="38.7126" y2="33.2414">
				<stop  offset="0" style="stop-color:#FFFFFF"/>
				<stop  offset="1" style="stop-color:#F7E1BF"/>
			</linearGradient>
			<path class="st5" d="M37.8,17.3c1.1,2.2,1.1,2.8,1.1,2.8s4.2-0.2,5.1-2.1c0.9-1.9-0.3-4.6-3.5-4.7c-3.2-0.1-6.6,0.5-7.4-0.1
				C33.1,13.1,36.7,15.1,37.8,17.3z"/>
			<linearGradient id="SVGID_5_" gradientUnits="userSpaceOnUse" x1="28.4981" y1="10.4005" x2="28.4981" y2="33.2439">
				<stop  offset="0" style="stop-color:#FFFFFF"/>
				<stop  offset="1" style="stop-color:#F7E1BF"/>
			</linearGradient>
			<path class="st6" d="M41.5,27.2c-1.2,0-2.3,0.2-3.3,0.7c-0.9-1.2-1.3-2.6-1-4.1c0.8-3.4-0.1-7-3.9-9.3c-3.7-0.1-7.7-0.9-13.8,5.8
				c0,0,0,5.3,6,9.5c0,0.8-0.5,2.7-1.4,5c0,0,0,0,0-0.1c-0.8,1.9-2.8,5.2-3.2,5.1c1-1.3,2.7-5.3,3-6.9c-1.4-2.9-4.9-5.6-8.3-5.6
				c-4.7,0-8.5,3.8-8.5,8.5c0,4.7,3.8,8.5,8.5,8.5c3.6,0,6.7-2.2,7.9-5.4c0.5-0.3,1-0.7,1.4-1.3c0.7-1.1,4.7-6.2,4.7-6.2
				s0.9-1.1,0-2.7c-0.9-1.6-2.4-4.1-2.4-4.1s1.7,0.3,3.3,4c1.8-1.7,2.8-2.6,2.8-2.6s0.7,1.8,1.7,2.6c0.2,0.2,0.5,0.4,1,0.6
				c0,0-0.1,0.1-0.1,0.1c1,0.5,4.4,2,6.9,1.7l0.4,0.2c0,0-3.5,0.5-7.7-1.6c-1.3,1.5-2.5,3.8-2.5,5.9c0,4.7,3.8,8.5,8.5,8.5
				c4.7,0,8.5-3.8,8.5-8.5C50,31.1,46.2,27.2,41.5,27.2z M33.2,23.8c-1.1-1.5-3.5-1.8-6.7-4c1.3,0,3.6,0.2,5.8,0.8
				C34.6,21.1,33.2,23.8,33.2,23.8z"/>
		</g>
	</g>
</g>
</svg>
