<?xml version="1.0" encoding="utf-8"?>
<!-- Generator: Adobe Illustrator 19.2.0, SVG Export Plug-In . SVG Version: 6.00 Build 0)  -->
<svg version="1.1" id="Layer_1" xmlns="http://www.w3.org/2000/svg" xmlns:xlink="http://www.w3.org/1999/xlink" x="0px" y="0px"
	 viewBox="0 0 56.7 56.7" style="enable-background:new 0 0 56.7 56.7;" xml:space="preserve">
<style type="text/css">
	.st0{fill:url(#SVGID_1_);}
	.st1{opacity:0.62;fill:#231F20;}
	.st2{fill:url(#SVGID_2_);}
	.st3{fill:#850F2E;}
	.st4{fill:#FFFFFF;}
	.st5{fill:url(#SVGID_3_);}
	.st6{fill:url(#SVGID_4_);}
</style>
<g>
	<linearGradient id="SVGID_1_" gradientUnits="userSpaceOnUse" x1="28.6084" y1="44.5224" x2="28.6084" y2="12.5778">
		<stop  offset="0" style="stop-color:#880F2F"/>
		<stop  offset="1" style="stop-color:#CD164F"/>
	</linearGradient>
	<path class="st0" d="M54.9,45.3c0,5.1-4.1,9.2-9.2,9.2H11.6c-5.1,0-9.2-4.1-9.2-9.2V11.2C2.3,6.1,6.5,2,11.6,2h34.1
		c5.1,0,9.2,4.1,9.2,9.2V45.3z"/>
	<path class="st1" d="M45.2,2.7H12c-5,0-9,4-9,9v33.1c0,5,4,9,9,9h33.2c5,0,9-4,9-9V11.7C54.2,6.7,50.2,2.7,45.2,2.7z M53.5,44.3
		c0,4.8-3.9,8.7-8.7,8.7H12.5c-4.8,0-8.7-3.9-8.7-8.7V12.2c0-4.8,3.9-8.7,8.7-8.7h32.2c4.8,0,8.7,3.9,8.7,8.7V44.3z"/>
	<linearGradient id="SVGID_2_" gradientUnits="userSpaceOnUse" x1="2.8281" y1="28.2632" x2="54.3887" y2="28.2632">
		<stop  offset="0" style="stop-color:#CD164F"/>
		<stop  offset="0.2606" style="stop-color:#F097A1"/>
		<stop  offset="0.2922" style="stop-color:#E97C8E"/>
		<stop  offset="0.3462" style="stop-color:#DE5576"/>
		<stop  offset="0.3999" style="stop-color:#D63864"/>
		<stop  offset="0.4525" style="stop-color:#D12558"/>
		<stop  offset="0.5036" style="stop-color:#CE1852"/>
		<stop  offset="0.5515" style="stop-color:#CD164F"/>
		<stop  offset="0.59" style="stop-color:#D02156"/>
		<stop  offset="0.661" style="stop-color:#D94068"/>
		<stop  offset="0.7559" style="stop-color:#E7768B"/>
		<stop  offset="0.8061" style="stop-color:#F097A1"/>
		<stop  offset="0.8363" style="stop-color:#E8788C"/>
		<stop  offset="0.8882" style="stop-color:#DC4C70"/>
		<stop  offset="0.9346" style="stop-color:#D32D5D"/>
		<stop  offset="0.9734" style="stop-color:#CE1B53"/>
		<stop  offset="1" style="stop-color:#CD164F"/>
	</linearGradient>
	<path class="st2" d="M45.3,2.5H11.9c-5,0-9.1,4.1-9.1,9.1V45c0,5,4.1,9.1,9.1,9.1h33.4c5,0,9.1-4.1,9.1-9.1V11.5
		C54.4,6.5,50.3,2.5,45.3,2.5z M53.6,44.5c0,4.9-3.9,8.8-8.8,8.8H12.4c-4.9,0-8.8-3.9-8.8-8.8V12c0-4.9,3.9-8.8,8.8-8.8h32.5
		c4.9,0,8.8,3.9,8.8,8.8V44.5z"/>
	<g>
		<path class="st3" d="M33.9,12.9c0,0-3.9-1.6-8.9,1.7c-5.3,3.5-4.2,12.9-1.2,15.1c-1.9-3.8-2.7-11,3.8-9.8c0,0-1.8,19.9-17.1,29.5
			c4.6,0.5,15-7.2,20.2-15.8c6.2,2,4.9,2.8,4.9,2.8l-7,11.4c0,0,15.8-10.5,14.9-13c-1.2-3.3-9.3-6.7-9.3-6.7l2.2-5.4
			c0,0,2.6,0.6,3.7-0.3c2.8-2,2.5-3.4,2.5-3.4s-5,2.7-5.6-2.5C36.7,13.6,33.9,12.9,33.9,12.9z"/>
		<circle class="st3" cx="35.4" cy="8.8" r="3.4"/>
	</g>
	<g>
		<path class="st4" d="M33.9,14.3c0,0-3.9-1.6-8.9,1.7c-5.3,3.5-4.2,12.9-1.2,15.1c-1.9-3.8-2.7-11,3.8-9.8c0,0-1.8,19.9-17.1,29.5
			c4.6,0.5,15-7.2,20.2-15.8c6.2,2,4.9,2.8,4.9,2.8l-7,11.4c0,0,15.8-10.5,14.9-13c-1.2-3.3-9.3-6.7-9.3-6.7l2.2-5.4
			c0,0,2.6,0.6,3.7-0.3c2.8-2,2.5-3.4,2.5-3.4s-5,2.7-5.6-2.5C36.7,15.1,33.9,14.3,33.9,14.3z"/>
		<circle class="st4" cx="35.4" cy="10" r="3.4"/>
	</g>
	<g>
		<linearGradient id="SVGID_3_" gradientUnits="userSpaceOnUse" x1="29.5554" y1="15.8668" x2="28.3581" y2="28.5588">
			<stop  offset="0" style="stop-color:#FFFFFF"/>
			<stop  offset="1" style="stop-color:#F4D0DE"/>
		</linearGradient>
		<path class="st5" d="M33.9,13.7c0,0-3.9-1.6-8.9,1.7c-5.3,3.5-4.2,12.9-1.2,15.1c-1.9-3.8-2.7-11,3.8-9.8c0,0-1.8,19.9-17.1,29.6
			c4.6,0.5,15-7.2,20.2-15.8c6.2,2,4.9,2.8,4.9,2.8l-7,11.4c0,0,15.8-10.5,14.9-13c-1.2-3.3-9.3-6.7-9.3-6.7l2.2-5.4
			c0,0,2.6,0.6,3.7-0.3c2.8-2,2.5-3.4,2.5-3.4s-5,2.7-5.6-2.5C36.7,14.5,33.9,13.7,33.9,13.7z"/>
		<linearGradient id="SVGID_4_" gradientUnits="userSpaceOnUse" x1="35.3652" y1="8.4936" x2="35.3652" y2="12.1647">
			<stop  offset="0" style="stop-color:#FFFFFF"/>
			<stop  offset="1" style="stop-color:#F4D0DE"/>
		</linearGradient>
		<circle class="st6" cx="35.4" cy="9.6" r="3.4"/>
	</g>
</g>
</svg>
