<?xml version="1.0" encoding="utf-8"?>
<!-- Generator: Adobe Illustrator 19.2.0, SVG Export Plug-In . SVG Version: 6.00 Build 0)  -->
<svg version="1.1" id="Layer_1" xmlns="http://www.w3.org/2000/svg" xmlns:xlink="http://www.w3.org/1999/xlink" x="0px" y="0px"
	 viewBox="0 0 56.7 56.7" style="enable-background:new 0 0 56.7 56.7;" xml:space="preserve">
<style type="text/css">
	.st0{fill:url(#SVGID_1_);}
	.st1{fill:#155266;}
	.st2{fill:#FFFFFF;}
	.st3{fill:url(#SVGID_2_);}
	.st4{opacity:0.62;fill:#231F20;}
	.st5{fill:url(#SVGID_3_);}
</style>
<g>
	<linearGradient id="SVGID_1_" gradientUnits="userSpaceOnUse" x1="28.6084" y1="44.9062" x2="28.6084" y2="12.9616">
		<stop  offset="0" style="stop-color:#197590"/>
		<stop  offset="1" style="stop-color:#2FA5C6"/>
	</linearGradient>
	<path class="st0" d="M54.9,45.7c0,5.1-4.1,9.2-9.2,9.2H11.6c-5.1,0-9.2-4.1-9.2-9.2V11.6c0-5.1,4.1-9.2,9.2-9.2h34.1
		c5.1,0,9.2,4.1,9.2,9.2V45.7z"/>
	<g>
		<path class="st1" d="M54,34.3v-1.8l-2.7-0.9c0,0-3.6,1.5-5.1-0.1c1-1.4-0.6-5.6-4.5-5.2c-3.8,0.5-3.9,4.2-3.9,4.2h-2.1
			c0,0,0.7-8-10.5-12.9c-3.5-1.8-7.8,9.1-14.2,9.4c6.3,2.7,13.4-4.7,13.4-4.7s3.1,3.8,3.3,5.8c-1.2,1.1-3.3,3.3-8.5,3.3
			c-4.7,0.2-6.3-1.2-6.3-1.2s-5.5,1.7-9.5,1.4c0,1,0.2,4.5,0.2,4.5s5.6,1.1,9.2-1.8c2.9,2.2,8.6,2.1,12.5,1.1c6.3,0.7,11-0.3,11-0.3
			S49.3,35.8,54,34.3z"/>
		<path class="st2" d="M54,35.3v-1.8l-2.7-0.9c0,0-3.6,1.5-5.1-0.1c1-1.4-0.6-5.6-4.5-5.2c-3.8,0.5-3.9,4.2-3.9,4.2h-2.1
			c0,0,0.7-8-10.5-12.9c-3.5-1.8-7.8,9.1-14.2,9.4c6.3,2.7,13.4-4.7,13.4-4.7s3.1,3.8,3.3,5.8c-1.2,1.1-3.3,3.3-8.5,3.3
			c-4.7,0.2-6.3-1.2-6.3-1.2s-5.5,1.7-9.5,1.4c0,1,0.2,4.5,0.2,4.5s5.6,1.1,9.2-1.8c2.9,2.2,8.6,2.1,12.5,1.1c6.3,0.7,11-0.3,11-0.3
			S49.3,36.9,54,35.3z"/>
		<linearGradient id="SVGID_2_" gradientUnits="userSpaceOnUse" x1="3.3985" y1="27.4375" x2="53.7403" y2="27.4375">
			<stop  offset="0" style="stop-color:#FFFFFF"/>
			<stop  offset="1" style="stop-color:#B8DDE7"/>
		</linearGradient>
		<path class="st3" d="M53.7,35v-1.8l-2.7-0.9c0,0-3.6,1.5-5.1-0.1c1-1.4-0.6-5.6-4.5-5.2c-3.8,0.5-3.9,4.2-3.9,4.2h-2.1
			c0,0,0.7-8-10.5-12.9c-3.5-1.8-7.8,9.1-14.2,9.4c6.3,2.7,13.4-4.7,13.4-4.7s3.1,3.8,3.3,5.8c-1.2,1.1-3.3,3.3-8.5,3.3
			c-4.7,0.2-6.3-1.2-6.3-1.2s-5.5,1.7-9.5,1.4c0,1,0.2,4.5,0.2,4.5s5.6,1.1,9.2-1.8c2.9,2.2,8.6,2.1,12.5,1.1c6.3,0.7,11-0.3,11-0.3
			S49,36.5,53.7,35z"/>
	</g>
	<g>
		<path class="st4" d="M45.2,3.1H12c-5,0-9,4-9,9v33.1c0,5,4,9,9,9h33.2c5,0,9-4,9-9V12.1C54.2,7.1,50.2,3.1,45.2,3.1z M53.5,44.7
			c0,4.8-3.9,8.7-8.7,8.7H12.5c-4.8,0-8.7-3.9-8.7-8.7V12.5c0-4.8,3.9-8.7,8.7-8.7h32.2c4.8,0,8.7,3.9,8.7,8.7V44.7z"/>
		<linearGradient id="SVGID_3_" gradientUnits="userSpaceOnUse" x1="2.8281" y1="28.646" x2="54.3887" y2="28.646">
			<stop  offset="0" style="stop-color:#47ABC8"/>
			<stop  offset="0.2606" style="stop-color:#C8E3E9"/>
			<stop  offset="0.2866" style="stop-color:#B0D8E2"/>
			<stop  offset="0.3328" style="stop-color:#8AC8D8"/>
			<stop  offset="0.3789" style="stop-color:#6DBBD1"/>
			<stop  offset="0.4241" style="stop-color:#58B2CC"/>
			<stop  offset="0.468" style="stop-color:#4BADC9"/>
			<stop  offset="0.5091" style="stop-color:#47ABC8"/>
			<stop  offset="0.7697" style="stop-color:#C8E3E9"/>
			<stop  offset="0.7937" style="stop-color:#B0D8E2"/>
			<stop  offset="0.8366" style="stop-color:#8AC8D8"/>
			<stop  offset="0.8793" style="stop-color:#6DBBD1"/>
			<stop  offset="0.9212" style="stop-color:#58B2CC"/>
			<stop  offset="0.9619" style="stop-color:#4BADC9"/>
			<stop  offset="1" style="stop-color:#47ABC8"/>
		</linearGradient>
		<path class="st5" d="M45.3,2.9H11.9c-5,0-9.1,4.1-9.1,9.1v33.4c0,5,4.1,9.1,9.1,9.1h33.4c5,0,9.1-4.1,9.1-9.1V11.9
			C54.4,6.9,50.3,2.9,45.3,2.9z M53.6,44.9c0,4.9-3.9,8.8-8.8,8.8H12.4c-4.9,0-8.8-3.9-8.8-8.8V12.4c0-4.9,3.9-8.8,8.8-8.8h32.5
			c4.9,0,8.8,3.9,8.8,8.8V44.9z"/>
	</g>
</g>
</svg>
