<?xml version="1.0" encoding="utf-8"?>
<!-- Generator: Adobe Illustrator 19.2.0, SVG Export Plug-In . SVG Version: 6.00 Build 0)  -->
<svg version="1.1" id="Layer_1" xmlns="http://www.w3.org/2000/svg" xmlns:xlink="http://www.w3.org/1999/xlink" x="0px" y="0px"
	 viewBox="0 0 56.7 56.7" style="enable-background:new 0 0 56.7 56.7;" xml:space="preserve">
<style type="text/css">
	.st0{fill:url(#SVGID_1_);}
	.st1{fill:#66091B;}
	.st2{fill:url(#SVGID_2_);}
	.st3{opacity:0.62;fill:#231F20;}
	.st4{fill:url(#SVGID_3_);}
	.st5{fill:#FFFFFF;}
	.st6{fill:url(#SVGID_4_);}
	.st7{fill:url(#SVGID_5_);}
	.st8{fill:url(#SVGID_6_);}
	.st9{fill:#850F2E;}
	.st10{fill:url(#SVGID_7_);}
	.st11{fill:url(#SVGID_8_);}
</style>
<g>
	<linearGradient id="SVGID_1_" gradientUnits="userSpaceOnUse" x1="28.4536" y1="45.1298" x2="28.4536" y2="13.1852">
		<stop  offset="0" style="stop-color:#880F2F"/>
		<stop  offset="1" style="stop-color:#CD164F"/>
	</linearGradient>
	<path class="st0" d="M54.7,45.9c0,5.1-4.1,9.2-9.2,9.2H11.4c-5.1,0-9.2-4.1-9.2-9.2V11.8c0-5.1,4.1-9.2,9.2-9.2h34.1
		c5.1,0,9.2,4.1,9.2,9.2V45.9z"/>
	<g>
		<path class="st1" d="M50.7,52.1L52,51l-14.1-0.1c0,0-2.6,1.1-3.8-0.1c0.7-1-0.5-4.2-3.3-3.9c-2.8,0.3-2.9,3.1-2.9,3.1h-1.5
			c0,0,0.5-6-7.7-9.6c-2.6-1.3-5.7,6.7-10.5,7c4.6,2,9.9-3.5,9.9-3.5s2.3,2.8,2.4,4.3c-0.9,0.8-2.4,2.5-6.2,2.5
			c-3.5,0.1-4.6-0.9-4.6-0.9s-2,1-4.8,1c0,0.8,1.5,0.9,1.5,0.9S7,55,9.7,52.8c2.2,1.6,6.3,1.5,9.2,0.8c4.6,0.5,8.1-0.2,8.1-0.2
			S47.2,53.3,50.7,52.1z"/>
		<linearGradient id="SVGID_2_" gradientUnits="userSpaceOnUse" x1="28.1929" y1="43.7775" x2="28.1929" y2="51.962">
			<stop  offset="0" style="stop-color:#FFFFFF"/>
			<stop  offset="1" style="stop-color:#F4D0DE"/>
		</linearGradient>
		<path class="st2" d="M48.4,54l2.8-2.5l-13.5,0c0,0-2.6,1.1-3.8-0.1c0.7-1-0.5-4.2-3.3-3.9c-2.8,0.3-2.9,3.1-2.9,3.1h-1.5
			c0,0,0.5-6-7.7-9.6c-2.6-1.3-5.7,6.7-10.5,7c4.6,2,9.9-3.5,9.9-3.5s2.3,2.8,2.4,4.3c-0.9,0.8-2.4,2.5-6.2,2.5
			c-3.5,0.1-4.6-0.9-4.6-0.9s-1.7,0.8-4.3,0.7c0,0.8,4.2,2.8,4.2,2.8l28.1,0.5L48.4,54z"/>
	</g>
	<g>
		<path class="st3" d="M45,3.3H11.9c-5,0-9,4-9,9v33.1c0,5,4,9,9,9H45c5,0,9-4,9-9V12.3C54,7.3,50,3.3,45,3.3z M53.3,44.9
			c0,4.8-3.9,8.7-8.7,8.7H12.3c-4.8,0-8.7-3.9-8.7-8.7V12.8C3.6,8,7.5,4,12.3,4h32.2c4.8,0,8.7,3.9,8.7,8.7V44.9z"/>
		<linearGradient id="SVGID_3_" gradientUnits="userSpaceOnUse" x1="2.6724" y1="28.8711" x2="54.2339" y2="28.8711">
			<stop  offset="0" style="stop-color:#CD164F"/>
			<stop  offset="0.2606" style="stop-color:#F097A1"/>
			<stop  offset="0.2922" style="stop-color:#E97C8E"/>
			<stop  offset="0.3462" style="stop-color:#DE5576"/>
			<stop  offset="0.3999" style="stop-color:#D63864"/>
			<stop  offset="0.4525" style="stop-color:#D12558"/>
			<stop  offset="0.5036" style="stop-color:#CE1852"/>
			<stop  offset="0.5515" style="stop-color:#CD164F"/>
			<stop  offset="0.59" style="stop-color:#D02156"/>
			<stop  offset="0.661" style="stop-color:#D94068"/>
			<stop  offset="0.7559" style="stop-color:#E7768B"/>
			<stop  offset="0.8061" style="stop-color:#F097A1"/>
			<stop  offset="0.8363" style="stop-color:#E8788C"/>
			<stop  offset="0.8882" style="stop-color:#DC4C70"/>
			<stop  offset="0.9346" style="stop-color:#D32D5D"/>
			<stop  offset="0.9734" style="stop-color:#CE1B53"/>
			<stop  offset="1" style="stop-color:#CD164F"/>
		</linearGradient>
		<path class="st4" d="M45.2,3.1H11.7c-5,0-9.1,4.1-9.1,9.1v33.4c0,5,4.1,9.1,9.1,9.1h33.4c5,0,9.1-4.1,9.1-9.1V12.2
			C54.2,7.1,50.2,3.1,45.2,3.1z M53.5,45.1c0,4.9-3.9,8.8-8.8,8.8H12.2c-4.9,0-8.8-3.9-8.8-8.8V12.6c0-4.9,3.9-8.8,8.8-8.8h32.5
			c4.9,0,8.8,3.9,8.8,8.8V45.1z"/>
	</g>
	<g>
		<g>
			<path class="st1" d="M26.6,20.1c-3.1,0-5.7,2.5-5.7,5.7c0,3.1,2.5,5.7,5.7,5.7c3.1,0,5.7-2.5,5.7-5.7
				C32.2,22.7,29.7,20.1,26.6,20.1z M26.6,30.5c-2.6,0-4.7-2.1-4.7-4.7c0-2.6,2.1-4.7,4.7-4.7c2.6,0,4.7,2.1,4.7,4.7
				C31.3,28.4,29.2,30.5,26.6,30.5z"/>
			<path class="st1" d="M26.6,20.1C26.6,20.1,26.6,20.1,26.6,20.1C26.6,20.1,26.7,20.1,26.6,20.1z"/>
			<path class="st1" d="M22.8,10.3c0.4,0.4,0.9,0.6,1.5,0.6c1.2,0,2.1-0.9,2.1-2.1c0-0.2,0-0.4-0.1-0.6l0.2-0.1c0,0-0.6-1.6-2.6-1.5
				C22,6.8,22,6.8,22,6.8s0,1.2,0.2,1.7c0,0.1,0,0.2,0,0.4c0,0.4,0.1,0.7,0.3,1.1c-1.4-0.4-7-0.8-10.3,4.7C11,17.1,17.6,20,17.6,20
				l-1.9,4.1c-0.7-2.3-2.9-4-5.4-4c-3.1,0-5.7,2.5-5.7,5.7c0,3.1,2.5,5.7,5.7,5.7c3.1,0,5.6-2.5,5.7-5.5l6.1-6l-1.2-1.1
				c0.2-0.3,0.4-0.2,0.6-0.6c0.8-1.3-2.3-3.3-3.5-3.7c0.5-0.3,1.4-0.6,2.8-0.7c0.3,1.8,1,4.6,4.8,6.2c0.7,0,0.9,0.1,1,0.1
				C26.4,20,21.9,16.8,22.8,10.3z M10.3,30.5c-2.6,0-4.7-2.1-4.7-4.7c0-2.6,2.1-4.7,4.7-4.7c2.6,0,4.7,2.1,4.7,4.7
				C15,28.4,12.9,30.5,10.3,30.5z"/>
		</g>
		<g>
			<path class="st5" d="M26.6,21c-3.1,0-5.7,2.5-5.7,5.7c0,3.1,2.5,5.7,5.7,5.7c3.1,0,5.7-2.5,5.7-5.7C32.2,23.5,29.7,21,26.6,21z
				 M26.6,31.3c-2.6,0-4.7-2.1-4.7-4.7c0-2.6,2.1-4.7,4.7-4.7c2.6,0,4.7,2.1,4.7,4.7C31.3,29.2,29.2,31.3,26.6,31.3z"/>
			<path class="st5" d="M26.6,21C26.6,21,26.6,21,26.6,21C26.6,21,26.7,21,26.6,21z"/>
		</g>
		<g>
			<linearGradient id="SVGID_4_" gradientUnits="userSpaceOnUse" x1="20.9048" y1="26.2812" x2="32.2407" y2="26.2812">
				<stop  offset="0" style="stop-color:#FFFFFF"/>
				<stop  offset="1" style="stop-color:#F4D0DE"/>
			</linearGradient>
			<path class="st6" d="M26.6,20.6c-3.1,0-5.7,2.5-5.7,5.7c0,3.1,2.5,5.7,5.7,5.7c3.1,0,5.7-2.5,5.7-5.7
				C32.2,23.1,29.7,20.6,26.6,20.6z M26.6,31c-2.6,0-4.7-2.1-4.7-4.7c0-2.6,2.1-4.7,4.7-4.7c2.6,0,4.7,2.1,4.7,4.7
				C31.3,28.9,29.2,31,26.6,31z"/>
			<linearGradient id="SVGID_5_" gradientUnits="userSpaceOnUse" x1="26.5581" y1="20.6064" x2="26.604" y2="20.6064">
				<stop  offset="0" style="stop-color:#FFFFFF"/>
				<stop  offset="1" style="stop-color:#F4D0DE"/>
			</linearGradient>
			<path class="st7" d="M26.6,20.6C26.6,20.6,26.6,20.6,26.6,20.6C26.6,20.6,26.7,20.6,26.6,20.6z"/>
			<linearGradient id="SVGID_6_" gradientUnits="userSpaceOnUse" x1="4.6157" y1="19.5728" x2="26.5581" y2="19.5728">
				<stop  offset="0" style="stop-color:#FFFFFF"/>
				<stop  offset="1" style="stop-color:#F4D0DE"/>
			</linearGradient>
			<path class="st8" d="M22.8,10.8c0.4,0.4,0.9,0.6,1.5,0.6c1.2,0,2.1-0.9,2.1-2.1c0-0.2,0-0.4-0.1-0.6l0.2-0.1c0,0-0.6-1.6-2.6-1.5
				C22,7.3,22,7.3,22,7.3s0,1.2,0.2,1.7c0,0.1,0,0.2,0,0.4c0,0.4,0.1,0.7,0.3,1.1c-1.4-0.4-7-0.8-10.3,4.7c-1.2,2.5,5.3,5.4,5.3,5.4
				l-1.9,4.1c-0.7-2.3-2.9-4-5.4-4c-3.1,0-5.7,2.5-5.7,5.7c0,3.1,2.5,5.7,5.7,5.7c3.1,0,5.6-2.4,5.7-5.5l6.1-6l-1.2-1.1
				c0.2-0.3,0.4-0.2,0.6-0.6c0.8-1.3-2.3-3.3-3.5-3.7c0.5-0.3,1.4-0.6,2.8-0.7c0.3,1.8,1,4.6,4.8,6.2c0.7,0,0.9,0.1,1,0.1
				C26.4,20.5,21.9,17.3,22.8,10.8z M10.3,31c-2.6,0-4.7-2.1-4.7-4.7c0-2.6,2.1-4.7,4.7-4.7c2.6,0,4.7,2.1,4.7,4.7
				C15,28.9,12.9,31,10.3,31z"/>
		</g>
	</g>
	<g>
		<g>
			<path class="st9" d="M44.4,17c0,0-2.7-1.1-6.2,1.2c-3.7,2.4-2.9,8.9-0.9,10.4C36.1,26,35.6,21,40,21.9c0,0-1.2,13.8-11.8,20.4
				c3.2,0.3,10.4-4.9,13.9-10.9c4.3,1.4,3.4,2,3.4,2l-4.9,7.8c0,0,10.9-7.3,10.3-9c-0.8-2.3-6.4-4.6-6.4-4.6l1.5-3.7
				c0,0,1.8,0.4,2.6-0.2c2-1.4,1.8-2.4,1.8-2.4s-3.4,1.9-3.8-1.7C46.3,17.5,44.4,17,44.4,17z"/>
			<circle class="st9" cx="45.4" cy="14.2" r="2.4"/>
		</g>
		<g>
			<linearGradient id="SVGID_7_" gradientUnits="userSpaceOnUse" x1="41.3845" y1="19.0601" x2="40.5583" y2="27.8185">
				<stop  offset="0" style="stop-color:#FFFFFF"/>
				<stop  offset="1" style="stop-color:#F4D0DE"/>
			</linearGradient>
			<path class="st10" d="M44.4,17.6c0,0-2.7-1.1-6.2,1.2c-3.7,2.4-2.9,8.9-0.9,10.4c-1.3-2.6-1.8-7.6,2.6-6.7
				c0,0-1.2,13.8-11.8,20.4c3.2,0.3,10.4-4.9,13.9-10.9c4.3,1.4,3.4,2,3.4,2l-4.9,7.8c0,0,10.9-7.3,10.3-9c-0.8-2.3-6.4-4.6-6.4-4.6
				l1.5-3.7c0,0,1.8,0.4,2.6-0.2c2-1.4,1.8-2.4,1.8-2.4s-3.4,1.9-3.8-1.7C46.3,18.1,44.4,17.6,44.4,17.6z"/>
			<linearGradient id="SVGID_8_" gradientUnits="userSpaceOnUse" x1="45.3935" y1="13.9722" x2="45.3935" y2="16.5057">
				<stop  offset="0" style="stop-color:#FFFFFF"/>
				<stop  offset="1" style="stop-color:#F4D0DE"/>
			</linearGradient>
			<circle class="st11" cx="45.4" cy="14.7" r="2.4"/>
		</g>
	</g>
</g>
</svg>
